<mxfile host="app.diagrams.net" agent="Mozilla/5.0 (Macintosh; Intel Mac OS X 10_15_7) AppleWebKit/537.36 (KHTML, like Gecko) Chrome/131.0.0.0 Safari/537.36" version="25.0.3">
  <diagram name="Page-1" id="0Un0IAWzI6U6qrBfIG15">
    <mxGraphModel dx="1697" dy="987" grid="1" gridSize="10" guides="1" tooltips="1" connect="1" arrows="1" fold="1" page="1" pageScale="1" pageWidth="827" pageHeight="1169" math="0" shadow="0">
      <root>
        <mxCell id="0" />
        <mxCell id="1" parent="0" />
        <mxCell id="j3dxWM0FpJ5QSCnhhDyS-1" value="data-penduduk" style="swimlane;fontStyle=0;childLayout=stackLayout;horizontal=1;startSize=30;horizontalStack=0;resizeParent=1;resizeParentMax=0;resizeLast=0;collapsible=1;marginBottom=0;whiteSpace=wrap;html=1;fillColor=#dae8fc;strokeColor=#6c8ebf;" parent="1" vertex="1">
          <mxGeometry x="370" y="40" width="160" height="390" as="geometry" />
        </mxCell>
        <mxCell id="j3dxWM0FpJ5QSCnhhDyS-41" value="nik" style="text;strokeColor=#666666;fillColor=#f5f5f5;align=left;verticalAlign=middle;spacingLeft=4;spacingRight=4;overflow=hidden;points=[[0,0.5],[1,0.5]];portConstraint=eastwest;rotatable=0;whiteSpace=wrap;html=1;fontColor=#333333;" parent="j3dxWM0FpJ5QSCnhhDyS-1" vertex="1">
          <mxGeometry y="30" width="160" height="30" as="geometry" />
        </mxCell>
        <mxCell id="KTUcgKB6S22YD4GUEnQX-1" value="no_kk" style="text;strokeColor=#666666;fillColor=#f5f5f5;align=left;verticalAlign=middle;spacingLeft=4;spacingRight=4;overflow=hidden;points=[[0,0.5],[1,0.5]];portConstraint=eastwest;rotatable=0;whiteSpace=wrap;html=1;fontColor=#333333;" parent="j3dxWM0FpJ5QSCnhhDyS-1" vertex="1">
          <mxGeometry y="60" width="160" height="30" as="geometry" />
        </mxCell>
        <mxCell id="j3dxWM0FpJ5QSCnhhDyS-3" value="nama_lengkap" style="text;strokeColor=#666666;fillColor=#f5f5f5;align=left;verticalAlign=middle;spacingLeft=4;spacingRight=4;overflow=hidden;points=[[0,0.5],[1,0.5]];portConstraint=eastwest;rotatable=0;whiteSpace=wrap;html=1;fontColor=#333333;" parent="j3dxWM0FpJ5QSCnhhDyS-1" vertex="1">
          <mxGeometry y="90" width="160" height="30" as="geometry" />
        </mxCell>
        <mxCell id="j3dxWM0FpJ5QSCnhhDyS-51" value="tempat_lahir" style="text;strokeColor=#666666;fillColor=#f5f5f5;align=left;verticalAlign=middle;spacingLeft=4;spacingRight=4;overflow=hidden;points=[[0,0.5],[1,0.5]];portConstraint=eastwest;rotatable=0;whiteSpace=wrap;html=1;fontColor=#333333;" parent="j3dxWM0FpJ5QSCnhhDyS-1" vertex="1">
          <mxGeometry y="120" width="160" height="30" as="geometry" />
        </mxCell>
        <mxCell id="j3dxWM0FpJ5QSCnhhDyS-52" value="tgl_lahir" style="text;strokeColor=#666666;fillColor=#f5f5f5;align=left;verticalAlign=middle;spacingLeft=4;spacingRight=4;overflow=hidden;points=[[0,0.5],[1,0.5]];portConstraint=eastwest;rotatable=0;whiteSpace=wrap;html=1;fontColor=#333333;" parent="j3dxWM0FpJ5QSCnhhDyS-1" vertex="1">
          <mxGeometry y="150" width="160" height="30" as="geometry" />
        </mxCell>
        <mxCell id="KTUcgKB6S22YD4GUEnQX-11" value="status_hubungan_id" style="text;strokeColor=#666666;fillColor=#f5f5f5;align=left;verticalAlign=middle;spacingLeft=4;spacingRight=4;overflow=hidden;points=[[0,0.5],[1,0.5]];portConstraint=eastwest;rotatable=0;whiteSpace=wrap;html=1;fontColor=#333333;" parent="j3dxWM0FpJ5QSCnhhDyS-1" vertex="1">
          <mxGeometry y="180" width="160" height="30" as="geometry" />
        </mxCell>
        <mxCell id="j3dxWM0FpJ5QSCnhhDyS-4" value="kelamin_id" style="text;strokeColor=#666666;fillColor=#f5f5f5;align=left;verticalAlign=middle;spacingLeft=4;spacingRight=4;overflow=hidden;points=[[0,0.5],[1,0.5]];portConstraint=eastwest;rotatable=0;whiteSpace=wrap;html=1;fontColor=#333333;" parent="j3dxWM0FpJ5QSCnhhDyS-1" vertex="1">
          <mxGeometry y="210" width="160" height="30" as="geometry" />
        </mxCell>
        <mxCell id="j3dxWM0FpJ5QSCnhhDyS-70" value="gol_darah_id" style="text;strokeColor=#666666;fillColor=#f5f5f5;align=left;verticalAlign=middle;spacingLeft=4;spacingRight=4;overflow=hidden;points=[[0,0.5],[1,0.5]];portConstraint=eastwest;rotatable=0;whiteSpace=wrap;html=1;fontColor=#333333;" parent="j3dxWM0FpJ5QSCnhhDyS-1" vertex="1">
          <mxGeometry y="240" width="160" height="30" as="geometry" />
        </mxCell>
        <mxCell id="j3dxWM0FpJ5QSCnhhDyS-5" value="agama_id" style="text;strokeColor=#666666;fillColor=#f5f5f5;align=left;verticalAlign=middle;spacingLeft=4;spacingRight=4;overflow=hidden;points=[[0,0.5],[1,0.5]];portConstraint=eastwest;rotatable=0;whiteSpace=wrap;html=1;fontColor=#333333;" parent="j3dxWM0FpJ5QSCnhhDyS-1" vertex="1">
          <mxGeometry y="270" width="160" height="30" as="geometry" />
        </mxCell>
        <mxCell id="j3dxWM0FpJ5QSCnhhDyS-39" value="status_kawin_id" style="text;strokeColor=#666666;fillColor=#f5f5f5;align=left;verticalAlign=middle;spacingLeft=4;spacingRight=4;overflow=hidden;points=[[0,0.5],[1,0.5]];portConstraint=eastwest;rotatable=0;whiteSpace=wrap;html=1;fontColor=#333333;" parent="j3dxWM0FpJ5QSCnhhDyS-1" vertex="1">
          <mxGeometry y="300" width="160" height="30" as="geometry" />
        </mxCell>
        <mxCell id="j3dxWM0FpJ5QSCnhhDyS-66" value="pekerjaan_id" style="text;strokeColor=#666666;fillColor=#f5f5f5;align=left;verticalAlign=middle;spacingLeft=4;spacingRight=4;overflow=hidden;points=[[0,0.5],[1,0.5]];portConstraint=eastwest;rotatable=0;whiteSpace=wrap;html=1;fontColor=#333333;" parent="j3dxWM0FpJ5QSCnhhDyS-1" vertex="1">
          <mxGeometry y="330" width="160" height="30" as="geometry" />
        </mxCell>
        <mxCell id="j3dxWM0FpJ5QSCnhhDyS-67" value="kewarganegaraan_id" style="text;strokeColor=#666666;fillColor=#f5f5f5;align=left;verticalAlign=middle;spacingLeft=4;spacingRight=4;overflow=hidden;points=[[0,0.5],[1,0.5]];portConstraint=eastwest;rotatable=0;whiteSpace=wrap;html=1;fontColor=#333333;" parent="j3dxWM0FpJ5QSCnhhDyS-1" vertex="1">
          <mxGeometry y="360" width="160" height="30" as="geometry" />
        </mxCell>
        <mxCell id="j3dxWM0FpJ5QSCnhhDyS-6" value="kelamin" style="swimlane;fontStyle=0;childLayout=stackLayout;horizontal=1;startSize=30;horizontalStack=0;resizeParent=1;resizeParentMax=0;resizeLast=0;collapsible=1;marginBottom=0;whiteSpace=wrap;html=1;fillColor=#dae8fc;strokeColor=#6c8ebf;" parent="1" vertex="1">
          <mxGeometry y="140" width="160" height="90" as="geometry" />
        </mxCell>
        <mxCell id="j3dxWM0FpJ5QSCnhhDyS-7" value="id" style="text;strokeColor=#666666;fillColor=#f5f5f5;align=left;verticalAlign=middle;spacingLeft=4;spacingRight=4;overflow=hidden;points=[[0,0.5],[1,0.5]];portConstraint=eastwest;rotatable=0;whiteSpace=wrap;html=1;fontColor=#333333;" parent="j3dxWM0FpJ5QSCnhhDyS-6" vertex="1">
          <mxGeometry y="30" width="160" height="30" as="geometry" />
        </mxCell>
        <mxCell id="j3dxWM0FpJ5QSCnhhDyS-8" value="jenis_kelamin" style="text;strokeColor=#666666;fillColor=#f5f5f5;align=left;verticalAlign=middle;spacingLeft=4;spacingRight=4;overflow=hidden;points=[[0,0.5],[1,0.5]];portConstraint=eastwest;rotatable=0;whiteSpace=wrap;html=1;fontColor=#333333;" parent="j3dxWM0FpJ5QSCnhhDyS-6" vertex="1">
          <mxGeometry y="60" width="160" height="30" as="geometry" />
        </mxCell>
        <mxCell id="j3dxWM0FpJ5QSCnhhDyS-20" value="provinsi" style="swimlane;fontStyle=0;childLayout=stackLayout;horizontal=1;startSize=30;horizontalStack=0;resizeParent=1;resizeParentMax=0;resizeLast=0;collapsible=1;marginBottom=0;whiteSpace=wrap;html=1;fillColor=#dae8fc;strokeColor=#6c8ebf;" parent="1" vertex="1">
          <mxGeometry x="644" y="620" width="160" height="90" as="geometry" />
        </mxCell>
        <mxCell id="j3dxWM0FpJ5QSCnhhDyS-21" value="id" style="text;strokeColor=#666666;fillColor=#f5f5f5;align=left;verticalAlign=middle;spacingLeft=4;spacingRight=4;overflow=hidden;points=[[0,0.5],[1,0.5]];portConstraint=eastwest;rotatable=0;whiteSpace=wrap;html=1;fontColor=#333333;" parent="j3dxWM0FpJ5QSCnhhDyS-20" vertex="1">
          <mxGeometry y="30" width="160" height="30" as="geometry" />
        </mxCell>
        <mxCell id="j3dxWM0FpJ5QSCnhhDyS-22" value="nama" style="text;strokeColor=#666666;fillColor=#f5f5f5;align=left;verticalAlign=middle;spacingLeft=4;spacingRight=4;overflow=hidden;points=[[0,0.5],[1,0.5]];portConstraint=eastwest;rotatable=0;whiteSpace=wrap;html=1;fontColor=#333333;" parent="j3dxWM0FpJ5QSCnhhDyS-20" vertex="1">
          <mxGeometry y="60" width="160" height="30" as="geometry" />
        </mxCell>
        <mxCell id="j3dxWM0FpJ5QSCnhhDyS-24" value="kabupaten" style="swimlane;fontStyle=0;childLayout=stackLayout;horizontal=1;startSize=30;horizontalStack=0;resizeParent=1;resizeParentMax=0;resizeLast=0;collapsible=1;marginBottom=0;whiteSpace=wrap;html=1;fillColor=#dae8fc;strokeColor=#6c8ebf;" parent="1" vertex="1">
          <mxGeometry x="644" y="490" width="160" height="120" as="geometry" />
        </mxCell>
        <mxCell id="j3dxWM0FpJ5QSCnhhDyS-25" value="id" style="text;strokeColor=#666666;fillColor=#f5f5f5;align=left;verticalAlign=middle;spacingLeft=4;spacingRight=4;overflow=hidden;points=[[0,0.5],[1,0.5]];portConstraint=eastwest;rotatable=0;whiteSpace=wrap;html=1;fontColor=#333333;" parent="j3dxWM0FpJ5QSCnhhDyS-24" vertex="1">
          <mxGeometry y="30" width="160" height="30" as="geometry" />
        </mxCell>
        <mxCell id="j3dxWM0FpJ5QSCnhhDyS-26" value="provinsi_id" style="text;strokeColor=#666666;fillColor=#f5f5f5;align=left;verticalAlign=middle;spacingLeft=4;spacingRight=4;overflow=hidden;points=[[0,0.5],[1,0.5]];portConstraint=eastwest;rotatable=0;whiteSpace=wrap;html=1;fontColor=#333333;" parent="j3dxWM0FpJ5QSCnhhDyS-24" vertex="1">
          <mxGeometry y="60" width="160" height="30" as="geometry" />
        </mxCell>
        <mxCell id="j3dxWM0FpJ5QSCnhhDyS-74" value="nama" style="text;strokeColor=#666666;fillColor=#f5f5f5;align=left;verticalAlign=middle;spacingLeft=4;spacingRight=4;overflow=hidden;points=[[0,0.5],[1,0.5]];portConstraint=eastwest;rotatable=0;whiteSpace=wrap;html=1;fontColor=#333333;" parent="j3dxWM0FpJ5QSCnhhDyS-24" vertex="1">
          <mxGeometry y="90" width="160" height="30" as="geometry" />
        </mxCell>
        <mxCell id="j3dxWM0FpJ5QSCnhhDyS-27" value="kecamatan" style="swimlane;fontStyle=0;childLayout=stackLayout;horizontal=1;startSize=30;horizontalStack=0;resizeParent=1;resizeParentMax=0;resizeLast=0;collapsible=1;marginBottom=0;whiteSpace=wrap;html=1;fillColor=#dae8fc;strokeColor=#6c8ebf;" parent="1" vertex="1">
          <mxGeometry x="644" y="360" width="160" height="120" as="geometry" />
        </mxCell>
        <mxCell id="j3dxWM0FpJ5QSCnhhDyS-28" value="id" style="text;strokeColor=#666666;fillColor=#f5f5f5;align=left;verticalAlign=middle;spacingLeft=4;spacingRight=4;overflow=hidden;points=[[0,0.5],[1,0.5]];portConstraint=eastwest;rotatable=0;whiteSpace=wrap;html=1;fontColor=#333333;" parent="j3dxWM0FpJ5QSCnhhDyS-27" vertex="1">
          <mxGeometry y="30" width="160" height="30" as="geometry" />
        </mxCell>
        <mxCell id="j3dxWM0FpJ5QSCnhhDyS-29" value="kabupaten_id" style="text;strokeColor=#666666;fillColor=#f5f5f5;align=left;verticalAlign=middle;spacingLeft=4;spacingRight=4;overflow=hidden;points=[[0,0.5],[1,0.5]];portConstraint=eastwest;rotatable=0;whiteSpace=wrap;html=1;fontColor=#333333;" parent="j3dxWM0FpJ5QSCnhhDyS-27" vertex="1">
          <mxGeometry y="60" width="160" height="30" as="geometry" />
        </mxCell>
        <mxCell id="j3dxWM0FpJ5QSCnhhDyS-75" value="nama" style="text;strokeColor=#666666;fillColor=#f5f5f5;align=left;verticalAlign=middle;spacingLeft=4;spacingRight=4;overflow=hidden;points=[[0,0.5],[1,0.5]];portConstraint=eastwest;rotatable=0;whiteSpace=wrap;html=1;fontColor=#333333;" parent="j3dxWM0FpJ5QSCnhhDyS-27" vertex="1">
          <mxGeometry y="90" width="160" height="30" as="geometry" />
        </mxCell>
        <mxCell id="j3dxWM0FpJ5QSCnhhDyS-30" value="kelurahan" style="swimlane;fontStyle=0;childLayout=stackLayout;horizontal=1;startSize=30;horizontalStack=0;resizeParent=1;resizeParentMax=0;resizeLast=0;collapsible=1;marginBottom=0;whiteSpace=wrap;html=1;fillColor=#dae8fc;strokeColor=#6c8ebf;" parent="1" vertex="1">
          <mxGeometry x="644" y="230" width="160" height="120" as="geometry" />
        </mxCell>
        <mxCell id="j3dxWM0FpJ5QSCnhhDyS-31" value="id" style="text;strokeColor=#666666;fillColor=#f5f5f5;align=left;verticalAlign=middle;spacingLeft=4;spacingRight=4;overflow=hidden;points=[[0,0.5],[1,0.5]];portConstraint=eastwest;rotatable=0;whiteSpace=wrap;html=1;fontColor=#333333;" parent="j3dxWM0FpJ5QSCnhhDyS-30" vertex="1">
          <mxGeometry y="30" width="160" height="30" as="geometry" />
        </mxCell>
        <mxCell id="j3dxWM0FpJ5QSCnhhDyS-32" value="kecamatan_id" style="text;strokeColor=#666666;fillColor=#f5f5f5;align=left;verticalAlign=middle;spacingLeft=4;spacingRight=4;overflow=hidden;points=[[0,0.5],[1,0.5]];portConstraint=eastwest;rotatable=0;whiteSpace=wrap;html=1;fontColor=#333333;" parent="j3dxWM0FpJ5QSCnhhDyS-30" vertex="1">
          <mxGeometry y="60" width="160" height="30" as="geometry" />
        </mxCell>
        <mxCell id="j3dxWM0FpJ5QSCnhhDyS-76" value="nama" style="text;strokeColor=#666666;fillColor=#f5f5f5;align=left;verticalAlign=middle;spacingLeft=4;spacingRight=4;overflow=hidden;points=[[0,0.5],[1,0.5]];portConstraint=eastwest;rotatable=0;whiteSpace=wrap;html=1;fontColor=#333333;" parent="j3dxWM0FpJ5QSCnhhDyS-30" vertex="1">
          <mxGeometry y="90" width="160" height="30" as="geometry" />
        </mxCell>
        <mxCell id="j3dxWM0FpJ5QSCnhhDyS-42" value="gol_darah" style="swimlane;fontStyle=0;childLayout=stackLayout;horizontal=1;startSize=30;horizontalStack=0;resizeParent=1;resizeParentMax=0;resizeLast=0;collapsible=1;marginBottom=0;whiteSpace=wrap;html=1;fillColor=#dae8fc;strokeColor=#6c8ebf;" parent="1" vertex="1">
          <mxGeometry y="240" width="160" height="90" as="geometry" />
        </mxCell>
        <mxCell id="j3dxWM0FpJ5QSCnhhDyS-43" value="id" style="text;strokeColor=#666666;fillColor=#f5f5f5;align=left;verticalAlign=middle;spacingLeft=4;spacingRight=4;overflow=hidden;points=[[0,0.5],[1,0.5]];portConstraint=eastwest;rotatable=0;whiteSpace=wrap;html=1;fontColor=#333333;" parent="j3dxWM0FpJ5QSCnhhDyS-42" vertex="1">
          <mxGeometry y="30" width="160" height="30" as="geometry" />
        </mxCell>
        <mxCell id="j3dxWM0FpJ5QSCnhhDyS-44" value="nama" style="text;strokeColor=#666666;fillColor=#f5f5f5;align=left;verticalAlign=middle;spacingLeft=4;spacingRight=4;overflow=hidden;points=[[0,0.5],[1,0.5]];portConstraint=eastwest;rotatable=0;whiteSpace=wrap;html=1;fontColor=#333333;" parent="j3dxWM0FpJ5QSCnhhDyS-42" vertex="1">
          <mxGeometry y="60" width="160" height="30" as="geometry" />
        </mxCell>
        <mxCell id="j3dxWM0FpJ5QSCnhhDyS-11" value="agama" style="swimlane;fontStyle=0;childLayout=stackLayout;horizontal=1;startSize=30;horizontalStack=0;resizeParent=1;resizeParentMax=0;resizeLast=0;collapsible=1;marginBottom=0;whiteSpace=wrap;html=1;fillColor=#dae8fc;strokeColor=#6c8ebf;" parent="1" vertex="1">
          <mxGeometry y="340" width="160" height="90" as="geometry" />
        </mxCell>
        <mxCell id="j3dxWM0FpJ5QSCnhhDyS-12" value="id" style="text;strokeColor=#666666;fillColor=#f5f5f5;align=left;verticalAlign=middle;spacingLeft=4;spacingRight=4;overflow=hidden;points=[[0,0.5],[1,0.5]];portConstraint=eastwest;rotatable=0;whiteSpace=wrap;html=1;fontColor=#333333;" parent="j3dxWM0FpJ5QSCnhhDyS-11" vertex="1">
          <mxGeometry y="30" width="160" height="30" as="geometry" />
        </mxCell>
        <mxCell id="j3dxWM0FpJ5QSCnhhDyS-13" value="agama" style="text;strokeColor=#666666;fillColor=#f5f5f5;align=left;verticalAlign=middle;spacingLeft=4;spacingRight=4;overflow=hidden;points=[[0,0.5],[1,0.5]];portConstraint=eastwest;rotatable=0;whiteSpace=wrap;html=1;fontColor=#333333;" parent="j3dxWM0FpJ5QSCnhhDyS-11" vertex="1">
          <mxGeometry y="60" width="160" height="30" as="geometry" />
        </mxCell>
        <mxCell id="j3dxWM0FpJ5QSCnhhDyS-71" style="edgeStyle=orthogonalEdgeStyle;rounded=0;orthogonalLoop=1;jettySize=auto;html=1;endArrow=none;endFill=0;fillColor=#f5f5f5;strokeColor=#666666;" parent="1" source="j3dxWM0FpJ5QSCnhhDyS-43" target="j3dxWM0FpJ5QSCnhhDyS-70" edge="1">
          <mxGeometry relative="1" as="geometry">
            <Array as="points">
              <mxPoint x="240" y="285" />
              <mxPoint x="240" y="295" />
            </Array>
          </mxGeometry>
        </mxCell>
        <mxCell id="j3dxWM0FpJ5QSCnhhDyS-80" style="edgeStyle=orthogonalEdgeStyle;rounded=0;orthogonalLoop=1;jettySize=auto;html=1;endArrow=none;endFill=0;fillColor=#f5f5f5;strokeColor=#666666;" parent="1" source="j3dxWM0FpJ5QSCnhhDyS-26" target="j3dxWM0FpJ5QSCnhhDyS-21" edge="1">
          <mxGeometry relative="1" as="geometry">
            <Array as="points">
              <mxPoint x="624" y="565" />
              <mxPoint x="624" y="665" />
            </Array>
          </mxGeometry>
        </mxCell>
        <mxCell id="j3dxWM0FpJ5QSCnhhDyS-84" value="status_kawin" style="swimlane;fontStyle=0;childLayout=stackLayout;horizontal=1;startSize=30;horizontalStack=0;resizeParent=1;resizeParentMax=0;resizeLast=0;collapsible=1;marginBottom=0;whiteSpace=wrap;html=1;fillColor=#dae8fc;strokeColor=#6c8ebf;" parent="1" vertex="1">
          <mxGeometry y="440" width="160" height="90" as="geometry" />
        </mxCell>
        <mxCell id="j3dxWM0FpJ5QSCnhhDyS-85" value="id" style="text;strokeColor=#666666;fillColor=#f5f5f5;align=left;verticalAlign=middle;spacingLeft=4;spacingRight=4;overflow=hidden;points=[[0,0.5],[1,0.5]];portConstraint=eastwest;rotatable=0;whiteSpace=wrap;html=1;fontColor=#333333;" parent="j3dxWM0FpJ5QSCnhhDyS-84" vertex="1">
          <mxGeometry y="30" width="160" height="30" as="geometry" />
        </mxCell>
        <mxCell id="j3dxWM0FpJ5QSCnhhDyS-86" value="status" style="text;strokeColor=#666666;fillColor=#f5f5f5;align=left;verticalAlign=middle;spacingLeft=4;spacingRight=4;overflow=hidden;points=[[0,0.5],[1,0.5]];portConstraint=eastwest;rotatable=0;whiteSpace=wrap;html=1;fontColor=#333333;" parent="j3dxWM0FpJ5QSCnhhDyS-84" vertex="1">
          <mxGeometry y="60" width="160" height="30" as="geometry" />
        </mxCell>
        <mxCell id="j3dxWM0FpJ5QSCnhhDyS-89" value="pekerjaan" style="swimlane;fontStyle=0;childLayout=stackLayout;horizontal=1;startSize=30;horizontalStack=0;resizeParent=1;resizeParentMax=0;resizeLast=0;collapsible=1;marginBottom=0;whiteSpace=wrap;html=1;fillColor=#dae8fc;strokeColor=#6c8ebf;" parent="1" vertex="1">
          <mxGeometry y="540" width="160" height="90" as="geometry" />
        </mxCell>
        <mxCell id="j3dxWM0FpJ5QSCnhhDyS-90" value="id" style="text;strokeColor=#666666;fillColor=#f5f5f5;align=left;verticalAlign=middle;spacingLeft=4;spacingRight=4;overflow=hidden;points=[[0,0.5],[1,0.5]];portConstraint=eastwest;rotatable=0;whiteSpace=wrap;html=1;fontColor=#333333;" parent="j3dxWM0FpJ5QSCnhhDyS-89" vertex="1">
          <mxGeometry y="30" width="160" height="30" as="geometry" />
        </mxCell>
        <mxCell id="j3dxWM0FpJ5QSCnhhDyS-91" value="pekerjaan" style="text;strokeColor=#666666;fillColor=#f5f5f5;align=left;verticalAlign=middle;spacingLeft=4;spacingRight=4;overflow=hidden;points=[[0,0.5],[1,0.5]];portConstraint=eastwest;rotatable=0;whiteSpace=wrap;html=1;fontColor=#333333;" parent="j3dxWM0FpJ5QSCnhhDyS-89" vertex="1">
          <mxGeometry y="60" width="160" height="30" as="geometry" />
        </mxCell>
        <mxCell id="j3dxWM0FpJ5QSCnhhDyS-94" value="kewarganegaraan" style="swimlane;fontStyle=0;childLayout=stackLayout;horizontal=1;startSize=30;horizontalStack=0;resizeParent=1;resizeParentMax=0;resizeLast=0;collapsible=1;marginBottom=0;whiteSpace=wrap;html=1;fillColor=#dae8fc;strokeColor=#6c8ebf;" parent="1" vertex="1">
          <mxGeometry x="370" y="450" width="160" height="90" as="geometry" />
        </mxCell>
        <mxCell id="j3dxWM0FpJ5QSCnhhDyS-95" value="id" style="text;strokeColor=#666666;fillColor=#f5f5f5;align=left;verticalAlign=middle;spacingLeft=4;spacingRight=4;overflow=hidden;points=[[0,0.5],[1,0.5]];portConstraint=eastwest;rotatable=0;whiteSpace=wrap;html=1;fontColor=#333333;" parent="j3dxWM0FpJ5QSCnhhDyS-94" vertex="1">
          <mxGeometry y="30" width="160" height="30" as="geometry" />
        </mxCell>
        <mxCell id="j3dxWM0FpJ5QSCnhhDyS-96" value="nama" style="text;strokeColor=#666666;fillColor=#f5f5f5;align=left;verticalAlign=middle;spacingLeft=4;spacingRight=4;overflow=hidden;points=[[0,0.5],[1,0.5]];portConstraint=eastwest;rotatable=0;whiteSpace=wrap;html=1;fontColor=#333333;" parent="j3dxWM0FpJ5QSCnhhDyS-94" vertex="1">
          <mxGeometry y="60" width="160" height="30" as="geometry" />
        </mxCell>
        <mxCell id="KTUcgKB6S22YD4GUEnQX-2" value="KK" style="swimlane;fontStyle=0;childLayout=stackLayout;horizontal=1;startSize=30;horizontalStack=0;resizeParent=1;resizeParentMax=0;resizeLast=0;collapsible=1;marginBottom=0;whiteSpace=wrap;html=1;fillColor=#dae8fc;strokeColor=#6c8ebf;" parent="1" vertex="1">
          <mxGeometry x="644" y="40" width="160" height="180" as="geometry" />
        </mxCell>
        <mxCell id="KTUcgKB6S22YD4GUEnQX-3" value="no_kk" style="text;strokeColor=#666666;fillColor=#f5f5f5;align=left;verticalAlign=middle;spacingLeft=4;spacingRight=4;overflow=hidden;points=[[0,0.5],[1,0.5]];portConstraint=eastwest;rotatable=0;whiteSpace=wrap;html=1;fontColor=#333333;" parent="KTUcgKB6S22YD4GUEnQX-2" vertex="1">
          <mxGeometry y="30" width="160" height="30" as="geometry" />
        </mxCell>
        <mxCell id="eKxjkEF7NFQ5Wb2VWC_Y-1" value="alamat" style="text;strokeColor=#666666;fillColor=#f5f5f5;align=left;verticalAlign=middle;spacingLeft=4;spacingRight=4;overflow=hidden;points=[[0,0.5],[1,0.5]];portConstraint=eastwest;rotatable=0;whiteSpace=wrap;html=1;fontColor=#333333;" vertex="1" parent="KTUcgKB6S22YD4GUEnQX-2">
          <mxGeometry y="60" width="160" height="30" as="geometry" />
        </mxCell>
        <mxCell id="eKxjkEF7NFQ5Wb2VWC_Y-2" value="rt" style="text;strokeColor=#666666;fillColor=#f5f5f5;align=left;verticalAlign=middle;spacingLeft=4;spacingRight=4;overflow=hidden;points=[[0,0.5],[1,0.5]];portConstraint=eastwest;rotatable=0;whiteSpace=wrap;html=1;fontColor=#333333;" vertex="1" parent="KTUcgKB6S22YD4GUEnQX-2">
          <mxGeometry y="90" width="160" height="30" as="geometry" />
        </mxCell>
        <mxCell id="eKxjkEF7NFQ5Wb2VWC_Y-3" value="rw" style="text;strokeColor=#666666;fillColor=#f5f5f5;align=left;verticalAlign=middle;spacingLeft=4;spacingRight=4;overflow=hidden;points=[[0,0.5],[1,0.5]];portConstraint=eastwest;rotatable=0;whiteSpace=wrap;html=1;fontColor=#333333;" vertex="1" parent="KTUcgKB6S22YD4GUEnQX-2">
          <mxGeometry y="120" width="160" height="30" as="geometry" />
        </mxCell>
        <mxCell id="KTUcgKB6S22YD4GUEnQX-4" value="kelurahan_id" style="text;strokeColor=#666666;fillColor=#f5f5f5;align=left;verticalAlign=middle;spacingLeft=4;spacingRight=4;overflow=hidden;points=[[0,0.5],[1,0.5]];portConstraint=eastwest;rotatable=0;whiteSpace=wrap;html=1;fontColor=#333333;" parent="KTUcgKB6S22YD4GUEnQX-2" vertex="1">
          <mxGeometry y="150" width="160" height="30" as="geometry" />
        </mxCell>
        <mxCell id="KTUcgKB6S22YD4GUEnQX-6" style="edgeStyle=orthogonalEdgeStyle;rounded=0;orthogonalLoop=1;jettySize=auto;html=1;endArrow=none;endFill=0;fillColor=#f5f5f5;strokeColor=#666666;" parent="1" source="KTUcgKB6S22YD4GUEnQX-1" target="KTUcgKB6S22YD4GUEnQX-3" edge="1">
          <mxGeometry relative="1" as="geometry">
            <Array as="points">
              <mxPoint x="590" y="115" />
              <mxPoint x="590" y="85" />
            </Array>
          </mxGeometry>
        </mxCell>
        <mxCell id="KTUcgKB6S22YD4GUEnQX-8" value="status_hubungan" style="swimlane;fontStyle=0;childLayout=stackLayout;horizontal=1;startSize=30;horizontalStack=0;resizeParent=1;resizeParentMax=0;resizeLast=0;collapsible=1;marginBottom=0;whiteSpace=wrap;html=1;fillColor=#dae8fc;strokeColor=#6c8ebf;" parent="1" vertex="1">
          <mxGeometry y="40" width="160" height="90" as="geometry" />
        </mxCell>
        <mxCell id="KTUcgKB6S22YD4GUEnQX-9" value="id" style="text;strokeColor=#666666;fillColor=#f5f5f5;align=left;verticalAlign=middle;spacingLeft=4;spacingRight=4;overflow=hidden;points=[[0,0.5],[1,0.5]];portConstraint=eastwest;rotatable=0;whiteSpace=wrap;html=1;fontColor=#333333;" parent="KTUcgKB6S22YD4GUEnQX-8" vertex="1">
          <mxGeometry y="30" width="160" height="30" as="geometry" />
        </mxCell>
        <mxCell id="KTUcgKB6S22YD4GUEnQX-10" value="status_hubungan" style="text;strokeColor=#666666;fillColor=#f5f5f5;align=left;verticalAlign=middle;spacingLeft=4;spacingRight=4;overflow=hidden;points=[[0,0.5],[1,0.5]];portConstraint=eastwest;rotatable=0;whiteSpace=wrap;html=1;fontColor=#333333;" parent="KTUcgKB6S22YD4GUEnQX-8" vertex="1">
          <mxGeometry y="60" width="160" height="30" as="geometry" />
        </mxCell>
        <mxCell id="KTUcgKB6S22YD4GUEnQX-13" value="pemohon" style="swimlane;fontStyle=0;childLayout=stackLayout;horizontal=1;startSize=30;horizontalStack=0;resizeParent=1;resizeParentMax=0;resizeLast=0;collapsible=1;marginBottom=0;whiteSpace=wrap;html=1;fillColor=#dae8fc;strokeColor=#6c8ebf;" parent="1" vertex="1">
          <mxGeometry x="327" y="800" width="160" height="180" as="geometry" />
        </mxCell>
        <mxCell id="KTUcgKB6S22YD4GUEnQX-14" value="id" style="text;strokeColor=#666666;fillColor=#f5f5f5;align=left;verticalAlign=middle;spacingLeft=4;spacingRight=4;overflow=hidden;points=[[0,0.5],[1,0.5]];portConstraint=eastwest;rotatable=0;whiteSpace=wrap;html=1;fontColor=#333333;" parent="KTUcgKB6S22YD4GUEnQX-13" vertex="1">
          <mxGeometry y="30" width="160" height="30" as="geometry" />
        </mxCell>
        <mxCell id="KTUcgKB6S22YD4GUEnQX-15" value="jenis_permohonan_id" style="text;strokeColor=#666666;fillColor=#f5f5f5;align=left;verticalAlign=middle;spacingLeft=4;spacingRight=4;overflow=hidden;points=[[0,0.5],[1,0.5]];portConstraint=eastwest;rotatable=0;whiteSpace=wrap;html=1;fontColor=#333333;" parent="KTUcgKB6S22YD4GUEnQX-13" vertex="1">
          <mxGeometry y="60" width="160" height="30" as="geometry" />
        </mxCell>
        <mxCell id="KTUcgKB6S22YD4GUEnQX-23" value="status_pemohon_id" style="text;strokeColor=#666666;fillColor=#f5f5f5;align=left;verticalAlign=middle;spacingLeft=4;spacingRight=4;overflow=hidden;points=[[0,0.5],[1,0.5]];portConstraint=eastwest;rotatable=0;whiteSpace=wrap;html=1;fontColor=#333333;" parent="KTUcgKB6S22YD4GUEnQX-13" vertex="1">
          <mxGeometry y="90" width="160" height="30" as="geometry" />
        </mxCell>
        <mxCell id="KTUcgKB6S22YD4GUEnQX-21" value="tanggal_dibuat" style="text;strokeColor=#666666;fillColor=#f5f5f5;align=left;verticalAlign=middle;spacingLeft=4;spacingRight=4;overflow=hidden;points=[[0,0.5],[1,0.5]];portConstraint=eastwest;rotatable=0;whiteSpace=wrap;html=1;fontColor=#333333;" parent="KTUcgKB6S22YD4GUEnQX-13" vertex="1">
          <mxGeometry y="120" width="160" height="30" as="geometry" />
        </mxCell>
        <mxCell id="KTUcgKB6S22YD4GUEnQX-22" value="tanggal_diterima" style="text;strokeColor=#666666;fillColor=#f5f5f5;align=left;verticalAlign=middle;spacingLeft=4;spacingRight=4;overflow=hidden;points=[[0,0.5],[1,0.5]];portConstraint=eastwest;rotatable=0;whiteSpace=wrap;html=1;fontColor=#333333;" parent="KTUcgKB6S22YD4GUEnQX-13" vertex="1">
          <mxGeometry y="150" width="160" height="30" as="geometry" />
        </mxCell>
        <mxCell id="KTUcgKB6S22YD4GUEnQX-17" value="jenis_permohonan" style="swimlane;fontStyle=0;childLayout=stackLayout;horizontal=1;startSize=30;horizontalStack=0;resizeParent=1;resizeParentMax=0;resizeLast=0;collapsible=1;marginBottom=0;whiteSpace=wrap;html=1;fillColor=#dae8fc;strokeColor=#6c8ebf;" parent="1" vertex="1">
          <mxGeometry x="93" y="800" width="160" height="90" as="geometry" />
        </mxCell>
        <mxCell id="KTUcgKB6S22YD4GUEnQX-18" value="id" style="text;strokeColor=#666666;fillColor=#f5f5f5;align=left;verticalAlign=middle;spacingLeft=4;spacingRight=4;overflow=hidden;points=[[0,0.5],[1,0.5]];portConstraint=eastwest;rotatable=0;whiteSpace=wrap;html=1;fontColor=#333333;" parent="KTUcgKB6S22YD4GUEnQX-17" vertex="1">
          <mxGeometry y="30" width="160" height="30" as="geometry" />
        </mxCell>
        <mxCell id="KTUcgKB6S22YD4GUEnQX-19" value="jenis" style="text;strokeColor=#666666;fillColor=#f5f5f5;align=left;verticalAlign=middle;spacingLeft=4;spacingRight=4;overflow=hidden;points=[[0,0.5],[1,0.5]];portConstraint=eastwest;rotatable=0;whiteSpace=wrap;html=1;fontColor=#333333;" parent="KTUcgKB6S22YD4GUEnQX-17" vertex="1">
          <mxGeometry y="60" width="160" height="30" as="geometry" />
        </mxCell>
        <mxCell id="KTUcgKB6S22YD4GUEnQX-24" value="status_pemohon" style="swimlane;fontStyle=0;childLayout=stackLayout;horizontal=1;startSize=30;horizontalStack=0;resizeParent=1;resizeParentMax=0;resizeLast=0;collapsible=1;marginBottom=0;whiteSpace=wrap;html=1;fillColor=#dae8fc;strokeColor=#6c8ebf;" parent="1" vertex="1">
          <mxGeometry x="573" y="800" width="160" height="90" as="geometry" />
        </mxCell>
        <mxCell id="KTUcgKB6S22YD4GUEnQX-25" value="id" style="text;strokeColor=#666666;fillColor=#f5f5f5;align=left;verticalAlign=middle;spacingLeft=4;spacingRight=4;overflow=hidden;points=[[0,0.5],[1,0.5]];portConstraint=eastwest;rotatable=0;whiteSpace=wrap;html=1;fontColor=#333333;" parent="KTUcgKB6S22YD4GUEnQX-24" vertex="1">
          <mxGeometry y="30" width="160" height="30" as="geometry" />
        </mxCell>
        <mxCell id="KTUcgKB6S22YD4GUEnQX-26" value="status" style="text;strokeColor=#666666;fillColor=#f5f5f5;align=left;verticalAlign=middle;spacingLeft=4;spacingRight=4;overflow=hidden;points=[[0,0.5],[1,0.5]];portConstraint=eastwest;rotatable=0;whiteSpace=wrap;html=1;fontColor=#333333;" parent="KTUcgKB6S22YD4GUEnQX-24" vertex="1">
          <mxGeometry y="60" width="160" height="30" as="geometry" />
        </mxCell>
        <mxCell id="eKxjkEF7NFQ5Wb2VWC_Y-4" style="edgeStyle=orthogonalEdgeStyle;rounded=0;orthogonalLoop=1;jettySize=auto;html=1;strokeColor=#666666;endArrow=none;endFill=0;" edge="1" parent="1" source="KTUcgKB6S22YD4GUEnQX-11" target="KTUcgKB6S22YD4GUEnQX-9">
          <mxGeometry relative="1" as="geometry">
            <Array as="points">
              <mxPoint x="320" y="235" />
              <mxPoint x="320" y="90" />
            </Array>
          </mxGeometry>
        </mxCell>
        <mxCell id="eKxjkEF7NFQ5Wb2VWC_Y-5" style="edgeStyle=orthogonalEdgeStyle;rounded=0;orthogonalLoop=1;jettySize=auto;html=1;strokeColor=#666666;endArrow=none;endFill=0;" edge="1" parent="1" source="j3dxWM0FpJ5QSCnhhDyS-4" target="j3dxWM0FpJ5QSCnhhDyS-7">
          <mxGeometry relative="1" as="geometry">
            <Array as="points">
              <mxPoint x="280" y="265" />
              <mxPoint x="280" y="185" />
            </Array>
          </mxGeometry>
        </mxCell>
        <mxCell id="eKxjkEF7NFQ5Wb2VWC_Y-7" style="edgeStyle=orthogonalEdgeStyle;rounded=0;orthogonalLoop=1;jettySize=auto;html=1;strokeColor=#666666;endArrow=none;endFill=0;" edge="1" parent="1" source="j3dxWM0FpJ5QSCnhhDyS-5" target="j3dxWM0FpJ5QSCnhhDyS-12">
          <mxGeometry relative="1" as="geometry">
            <Array as="points">
              <mxPoint x="290" y="325" />
              <mxPoint x="290" y="385" />
            </Array>
          </mxGeometry>
        </mxCell>
        <mxCell id="eKxjkEF7NFQ5Wb2VWC_Y-8" style="edgeStyle=orthogonalEdgeStyle;rounded=0;orthogonalLoop=1;jettySize=auto;html=1;strokeColor=#666666;endArrow=none;endFill=0;" edge="1" parent="1" source="j3dxWM0FpJ5QSCnhhDyS-39" target="j3dxWM0FpJ5QSCnhhDyS-85">
          <mxGeometry relative="1" as="geometry">
            <Array as="points">
              <mxPoint x="320" y="355" />
              <mxPoint x="320" y="410" />
              <mxPoint x="210" y="410" />
              <mxPoint x="210" y="485" />
            </Array>
          </mxGeometry>
        </mxCell>
        <mxCell id="eKxjkEF7NFQ5Wb2VWC_Y-9" style="edgeStyle=orthogonalEdgeStyle;rounded=0;orthogonalLoop=1;jettySize=auto;html=1;strokeColor=#666666;endArrow=none;endFill=0;" edge="1" parent="1" source="j3dxWM0FpJ5QSCnhhDyS-66" target="j3dxWM0FpJ5QSCnhhDyS-90">
          <mxGeometry relative="1" as="geometry">
            <Array as="points">
              <mxPoint x="340" y="385" />
              <mxPoint x="340" y="585" />
            </Array>
          </mxGeometry>
        </mxCell>
        <mxCell id="eKxjkEF7NFQ5Wb2VWC_Y-11" style="edgeStyle=orthogonalEdgeStyle;rounded=0;orthogonalLoop=1;jettySize=auto;html=1;strokeColor=#666666;endArrow=none;endFill=0;" edge="1" parent="1" source="j3dxWM0FpJ5QSCnhhDyS-67" target="j3dxWM0FpJ5QSCnhhDyS-95">
          <mxGeometry relative="1" as="geometry">
            <Array as="points">
              <mxPoint x="550" y="415" />
              <mxPoint x="550" y="495" />
            </Array>
          </mxGeometry>
        </mxCell>
        <mxCell id="eKxjkEF7NFQ5Wb2VWC_Y-12" style="edgeStyle=orthogonalEdgeStyle;rounded=0;orthogonalLoop=1;jettySize=auto;html=1;strokeColor=#666666;endArrow=none;endFill=0;" edge="1" parent="1" source="KTUcgKB6S22YD4GUEnQX-4" target="j3dxWM0FpJ5QSCnhhDyS-31">
          <mxGeometry relative="1" as="geometry">
            <Array as="points">
              <mxPoint x="624" y="205" />
              <mxPoint x="624" y="275" />
            </Array>
          </mxGeometry>
        </mxCell>
        <mxCell id="eKxjkEF7NFQ5Wb2VWC_Y-13" style="edgeStyle=orthogonalEdgeStyle;rounded=0;orthogonalLoop=1;jettySize=auto;html=1;strokeColor=#666666;endArrow=none;endFill=0;" edge="1" parent="1" source="j3dxWM0FpJ5QSCnhhDyS-32" target="j3dxWM0FpJ5QSCnhhDyS-28">
          <mxGeometry relative="1" as="geometry">
            <Array as="points">
              <mxPoint x="624" y="305" />
              <mxPoint x="624" y="405" />
            </Array>
          </mxGeometry>
        </mxCell>
        <mxCell id="eKxjkEF7NFQ5Wb2VWC_Y-14" style="edgeStyle=orthogonalEdgeStyle;rounded=0;orthogonalLoop=1;jettySize=auto;html=1;strokeColor=#666666;endArrow=none;endFill=0;" edge="1" parent="1" source="j3dxWM0FpJ5QSCnhhDyS-29" target="j3dxWM0FpJ5QSCnhhDyS-25">
          <mxGeometry relative="1" as="geometry">
            <Array as="points">
              <mxPoint x="624" y="435" />
              <mxPoint x="624" y="535" />
            </Array>
          </mxGeometry>
        </mxCell>
        <mxCell id="eKxjkEF7NFQ5Wb2VWC_Y-15" style="edgeStyle=orthogonalEdgeStyle;rounded=0;orthogonalLoop=1;jettySize=auto;html=1;strokeColor=#666666;endArrow=none;endFill=0;" edge="1" parent="1" source="KTUcgKB6S22YD4GUEnQX-15" target="KTUcgKB6S22YD4GUEnQX-18">
          <mxGeometry relative="1" as="geometry" />
        </mxCell>
        <mxCell id="eKxjkEF7NFQ5Wb2VWC_Y-16" style="edgeStyle=orthogonalEdgeStyle;rounded=0;orthogonalLoop=1;jettySize=auto;html=1;strokeColor=#666666;endArrow=none;endFill=0;" edge="1" parent="1" source="KTUcgKB6S22YD4GUEnQX-23" target="KTUcgKB6S22YD4GUEnQX-25">
          <mxGeometry relative="1" as="geometry" />
        </mxCell>
      </root>
    </mxGraphModel>
  </diagram>
</mxfile>
